<svg width="24" height="14" viewBox="0 0 24 14" fill="none" xmlns="http://www.w3.org/2000/svg">
<path d="M24 13.588C23.6507 13.7201 23.2651 13.7198 22.916 13.5872C22.5669 13.4545 22.2784 13.1987 22.105 12.868L18.655 8.09699L18.155 7.42999L14.152 12.874C13.989 13.1908 13.7161 13.4375 13.3845 13.5678C13.0529 13.6981 12.6851 13.7031 12.35 13.582L17.508 6.66199L12.71 0.410992C13.055 0.286667 13.4323 0.285019 13.7784 0.406325C14.1244 0.527631 14.4181 0.764482 14.61 1.07699L18.186 5.90699L21.782 1.09699C21.9463 0.78578 22.2192 0.545781 22.5488 0.422621C22.8785 0.299462 23.2419 0.301729 23.57 0.428993L21.708 2.89999L19.186 6.18299C19.116 6.24547 19.0599 6.32204 19.0215 6.40769C18.9832 6.49334 18.9633 6.58614 18.9633 6.67999C18.9633 6.77385 18.9832 6.86664 19.0215 6.95229C19.0599 7.03794 19.116 7.11452 19.186 7.17699L23.99 13.589L24 13.588ZM0.00199674 6.57599L0.421997 4.50099C1.576 0.397993 6.28 -1.30901 9.516 1.23099C11.411 2.71999 11.884 4.82799 11.791 7.20399H1.116C0.942997 11.447 4.005 14.009 7.92 12.7C8.55466 12.4715 9.12274 12.0892 9.57335 11.5873C10.024 11.0854 10.343 10.4795 10.502 9.82399C10.709 9.15799 11.05 9.04399 11.676 9.23599C11.5717 10.0484 11.2845 10.8265 10.8361 11.5119C10.3876 12.1973 9.78961 12.7721 9.087 13.193C7.92641 13.8278 6.59482 14.0794 5.28262 13.9119C3.97042 13.7443 2.7448 13.1661 1.781 12.26C0.828026 11.1874 0.252073 9.83249 0.140997 8.40199C0.140997 8.16699 0.0609967 7.94699 0.00699674 7.73599C0.00212877 7.34968 -0.000204616 6.96334 -3.26251e-06 6.57699L0.00199674 6.57599ZM1.129 6.28999H10.783C10.723 3.21399 8.782 1.03199 6.193 1.01199C3.311 0.971993 1.249 3.10599 1.122 6.27599L1.129 6.28999Z" fill="white"/>
</svg>
