<svg width="24" height="24" viewBox="0 0 24 24" fill="none" xmlns="http://www.w3.org/2000/svg">
<g clip-path="url(#clip0_2_2)">
<mask id="mask0_2_2" style="mask-type:luminance" maskUnits="userSpaceOnUse" x="0" y="0" width="24" height="24">
<path d="M24 0H0V24H24V0Z" fill="white"/>
</mask>
<g mask="url(#mask0_2_2)">
<path d="M23.245 6.48999L24 4.53299L23.969 4.41199L16.496 6.37899C17.293 5.22599 17.019 4.30099 17.019 4.30099C17.019 4.30099 14.632 5.82499 12.826 5.78599C11.022 5.74599 10.439 5.26599 7.671 6.14799C4.903 7.02999 4.12 9.73799 3.32 10.321C2.516 10.904 0 12.798 0 12.798L0.006 12.832L2.276 12.108C2.276 12.108 1.654 12.693 0.331 14.478L0.269 14.421L0.271 14.432C0.271 14.432 1.335 16.058 2.378 15.756C2.49982 15.7176 2.61796 15.6684 2.731 15.609C3.15 15.843 3.698 16.072 4.303 16.134C4.303 16.134 3.893 15.659 3.551 15.117L3.789 14.963L4.654 15.281L4.558 14.469C4.561 14.466 4.564 14.466 4.566 14.463L5.415 14.774L5.31 14.036C5.41563 13.9799 5.52302 13.9272 5.632 13.878L6.517 10.533L10.179 8.036L9.888 8.76899C9.147 10.595 7.753 11.025 7.753 11.025L7.171 11.245C6.738 11.757 6.557 11.882 6.407 13.598C6.755 13.51 7.089 13.491 7.391 13.57C8.955 13.991 9.498 15.877 9.076 16.397C8.972 16.527 8.72 16.751 8.403 17.014H7.77L7.762 17.528L7.697 17.579H7.052L7.043 18.083L6.873 18.21C6.266 18.221 5.5 17.692 5.5 17.692C5.5 18.173 5.901 18.917 5.901 18.917L5.971 18.883L5.91 18.928C5.91 18.928 7.535 20.011 8.556 19.609C9.466 19.253 11.819 17.396 13.852 16.516L20.002 14.896L20.813 12.796L16.125 14.031V12.142L21.625 10.694L22.436 8.59399L16.126 10.256V8.36699L23.245 6.48999ZM12.082 10.49L13.541 10.106L13.561 10.18L13.106 11.359L11.593 11.757L12.082 10.49ZM12.585 13.016L11.073 13.414L11.562 12.148L13.021 11.763L13.041 11.837L12.585 13.016ZM14.556 12.592L13.043 12.99L13.533 11.724L14.992 11.339L15.012 11.412L14.556 12.592Z" fill="white"/>
</g>
</g>
<defs>
<clipPath id="clip0_2_2">
<rect width="24" height="24" fill="white"/>
</clipPath>
</defs>
</svg>
