<svg width="15" height="15" viewBox="0 0 15 15" fill="none" xmlns="http://www.w3.org/2000/svg">
<g clip-path="url(#clip0_3_32)">
<mask id="mask0_3_32" style="mask-type:luminance" maskUnits="userSpaceOnUse" x="0" y="0" width="15" height="15">
<path d="M15 0H0V15H15V0Z" fill="white"/>
</mask>
<g mask="url(#mask0_3_32)">
<path fill-rule="evenodd" clip-rule="evenodd" d="M4.18179 6.18181C4.35753 6.00608 4.64245 6.00608 4.81819 6.18181L7.49999 8.86362L10.1818 6.18181C10.3575 6.00608 10.6424 6.00608 10.8182 6.18181C10.9939 6.35755 10.9939 6.64247 10.8182 6.81821L7.81819 9.81821C7.73379 9.9026 7.61934 9.95001 7.49999 9.95001C7.38064 9.95001 7.26618 9.9026 7.18179 9.81821L4.18179 6.81821C4.00605 6.64247 4.00605 6.35755 4.18179 6.18181Z" fill="white"/>
</g>
</g>
<defs>
<clipPath id="clip0_3_32">
<rect width="15" height="15" fill="white"/>
</clipPath>
</defs>
</svg>
