<svg width="707" height="679" viewBox="0 0 707 679" fill="none" xmlns="http://www.w3.org/2000/svg">
<path d="M566.822 290.154C598.621 259.429 621.637 219.512 629.338 175.839C646.44 78.848 581.677 0.221008 484.686 0.221008C429.05 0.221008 374.926 26.122 335.631 66.49C310.572 26.122 265.582 0.221008 209.946 0.221008C112.955 0.221008 20.463 78.849 3.36099 175.839C-4.34001 219.512 4.59999 259.429 25.564 290.154L246.625 560.98L248.12 562.794L250.254 560.98L566.822 290.154Z" fill="#747BFF"/>
<path d="M687.748 187.418L687.747 187.416C684.954 182.409 681.875 177.598 678.509 173.015L613.356 71.452C629.816 100.634 636.231 136.742 629.338 175.839C621.637 219.512 598.621 259.429 566.822 290.154L250.253 560.98L248.119 562.795L246.624 560.98L25.564 290.154C17.402 278.192 11.073 264.832 6.82898 250.404C6.82898 250.404 14.022 300.656 99.639 405.546L320.699 676.373L322.194 678.188L324.328 676.373L640.897 405.546C672.696 374.821 695.712 334.904 703.413 291.232C710.262 252.389 703.97 216.499 687.748 187.418Z" fill="url(#paint0_linear_1_5)"/>
<defs>
<linearGradient id="paint0_linear_1_5" x1="6.82888" y1="374.82" x2="706.15" y2="374.82" gradientUnits="userSpaceOnUse">
<stop stop-color="#74B9FF"/>
<stop offset="1" stop-color="#74A0FF"/>
</linearGradient>
</defs>
</svg>
